<?xml version="1.0" encoding="UTF-8" standalone="no"?>
<!-- Created with Inkscape (http://www.inkscape.org/) -->

<svg
   width="750mm"
   height="470mm"
   viewBox="0 0 750 470"
   version="1.1"
   id="svg1051"
   inkscape:version="1.1.2 (08b2f3d93c, 2022-04-05)"
   sodipodi:docname="home_bee_panel.svg"
   xmlns:inkscape="http://www.inkscape.org/namespaces/inkscape"
   xmlns:sodipodi="http://sodipodi.sourceforge.net/DTD/sodipodi-0.dtd"
   xmlns="http://www.w3.org/2000/svg"
   xmlns:svg="http://www.w3.org/2000/svg">
  <sodipodi:namedview
     id="namedview1053"
     pagecolor="#ffffff"
     bordercolor="#666666"
     borderopacity="1.0"
     inkscape:pageshadow="2"
     inkscape:pageopacity="0.0"
     inkscape:pagecheckerboard="0"
     inkscape:document-units="mm"
     showgrid="false"
     inkscape:zoom="0.77771465"
     inkscape:cx="1550.0544"
     inkscape:cy="1004.8673"
     inkscape:window-width="3784"
     inkscape:window-height="2096"
     inkscape:window-x="56"
     inkscape:window-y="27"
     inkscape:window-maximized="1"
     inkscape:current-layer="layer1" />
  <defs
     id="defs1048" />
  <g
     inkscape:label="Layer 1"
     inkscape:groupmode="layer"
     id="layer1">
    <g
       id="g963"
       transform="translate(-1.5118957,12.700002)">
      <g
         id="g960"
         transform="matrix(8.85,0,0,10.151471,552.52763,-11.299637)">
        <g
           id="g958">
          <path
             d="m 14.5,17 c 0,1.65 -1.35,3 -3,3 -1.65,0 -3,-1.35 -3,-3 h 2 c 0,0.55 0.45,1 1,1 0.55,0 1,-0.45 1,-1 0,-0.55 -0.45,-1 -1,-1 H 2 v -2 h 9.5 c 1.65,0 3,1.35 3,3 z M 19,6.5 C 19,4.57 17.43,3 15.5,3 13.57,3 12,4.57 12,6.5 h 2 C 14,5.67 14.67,5 15.5,5 16.33,5 17,5.67 17,6.5 17,7.33 16.33,8 15.5,8 H 2 v 2 H 15.5 C 17.43,10 19,8.43 19,6.5 Z M 18.5,11 H 2 v 2 h 16.5 c 0.83,0 1.5,0.67 1.5,1.5 0,0.83 -0.67,1.5 -1.5,1.5 v 2 C 20.43,18 22,16.43 22,14.5 22,12.57 20.43,11 18.5,11 Z"
             id="path956" />
        </g>
      </g>
      <path
         fill="currentColor"
         d="m 282.43996,61.192283 c 19.24874,0 36.06376,13.7175 39.825,32.671249 l 2.2125,11.062488 11.21,0.81126 c 11.505,0.81126 20.5025,10.39874 20.5025,21.82999 0,12.16876 -9.95625,22.12501 -22.12499,22.12501 h -95.87501 c -16.29875,0 -29.5,-13.20126 -29.5,-29.5 0,-15.11874 11.28376,-27.729997 26.255,-29.278747 l 7.89126,-0.811251 3.6875,-7.006249 a 40.245376,40.245376 0 0 1 35.91624,-21.903751 m 0,-14.749997 c -21.31374,0 -39.89874,12.094997 -49.1175,29.794998 -22.125,2.36 -39.3825,21.166246 -39.3825,43.954997 0,24.41125 19.83876,44.24999 44.25,44.24999 h 95.87501 c 20.35499,0 36.87499,-16.52 36.87499,-36.875 0,-19.46999 -15.11874,-35.252487 -34.22,-36.579988 -5.08875,-25.44375 -27.435,-44.544997 -54.28,-44.544997 z"
         id="path864"
         style="stroke-width:7.375" />
      <path
         d="m 94.29616,81.305922 c 13.27498,0 24.13636,10.861348 24.13636,24.136358 0,13.27499 -10.86138,24.13635 -24.13636,24.13635 -13.275022,0 -24.136359,-10.86136 -24.136359,-24.13635 0,-13.27501 10.861337,-24.136358 24.136359,-24.136358 m 0,-16.090918 c -22.205451,0 -40.227278,18.021827 -40.227278,40.227276 0,22.20545 18.021827,40.22727 40.227278,40.22727 22.20545,0 40.22728,-18.02182 40.22728,-40.22727 0,-22.205449 -18.02183,-40.227276 -40.22728,-40.227276 z M 13.841635,113.48773 h 16.090888 c 4.425002,0 8.045471,-3.62045 8.045471,-8.04545 0,-4.425 -3.620469,-8.045445 -8.045471,-8.045445 H 13.841635 c -4.4250025,0 -8.0454735,3.620445 -8.0454735,8.045445 0,4.425 3.620471,8.04545 8.0454735,8.04545 z m 144.818175,0 h 16.09089 c 4.425,0 8.04546,-3.62045 8.04546,-8.04545 0,-4.425 -3.62046,-8.045445 -8.04546,-8.045445 h -16.09089 c -4.425,0 -8.04548,3.620445 -8.04548,8.045445 0,4.425 3.62048,8.04545 8.04548,8.04545 z M 86.250719,24.987754 v 16.090888 c 0,4.425005 3.620442,8.045475 8.045441,8.045475 4.42501,0 8.04545,-3.620469 8.04545,-8.045475 V 24.987754 c 0,-4.425003 -3.62044,-8.045474 -8.04545,-8.045474 -4.424999,0 -8.045441,3.620471 -8.045441,8.045474 z m 0,144.818176 v 16.09089 c 0,4.425 3.620442,8.04546 8.045441,8.04546 4.42501,0 8.04545,-3.62046 8.04545,-8.04546 v -16.09089 c 0,-4.42501 -3.62044,-8.04549 -8.04545,-8.04549 -4.424999,0 -8.045441,3.62048 -8.045441,8.04549 z M 45.942974,45.745025 c -3.137705,-3.137743 -8.286817,-3.137743 -11.344072,0 -3.137739,3.137714 -3.137739,8.286795 0,11.344071 l 8.528174,8.528163 c 3.137714,3.137745 8.286816,3.137745 11.344081,0 3.057276,-3.137704 3.137735,-8.286786 0,-11.344061 z m 99.522276,99.522245 c -3.13774,-3.13772 -8.28682,-3.13772 -11.34411,0 -3.13771,3.13774 -3.13771,8.28682 0,11.34409 l 8.52821,8.52817 c 3.13771,3.13775 8.28682,3.13775 11.34406,0 3.13775,-3.13769 3.13775,-8.28681 0,-11.34408 z m 8.52816,-88.178173 c 3.13775,-3.137705 3.13775,-8.286817 0,-11.344071 -3.13769,-3.137743 -8.28681,-3.137743 -11.34406,0 l -8.52821,8.528173 c -3.13771,3.137714 -3.13771,8.286827 0,11.344061 3.13775,3.057296 8.28683,3.137744 11.34411,0 z M 54.471157,156.61136 c 3.137735,-3.13774 3.137735,-8.28683 0,-11.34409 -3.137714,-3.13772 -8.286796,-3.13772 -11.344081,0 l -8.528174,8.52818 c -3.137739,3.13772 -3.137739,8.28683 0,11.34408 3.137715,3.05729 8.286796,3.13775 11.344072,0 z"
         id="path4"
         style="stroke-width:8.04544" />
      <path
         fill="currentColor"
         d="m 422.31102,121.65383 a 8.0454591,8.0454591 0 0 1 8.04551,8.04547 c 0,4.425 -3.62054,8.04546 -8.04551,8.04546 -22.20547,0 -40.22725,-18.02185 -40.22725,-40.22731 0,-22.20545 18.02178,-40.227284 40.22725,-40.227284 8.04551,-18.906831 26.55001,-32.181838 48.27275,-32.181838 27.59589,0 50.20366,21.40093 52.29543,48.514116 l 4.02284,-0.241295 A 32.181837,32.181837 0 0 1 559.08377,105.563 c 0,17.70001 -14.40125,32.18184 -32.18173,32.18184 h -8.04552 c -4.42497,0 -8.04551,-3.62046 -8.04551,-8.04548 0,-4.50543 3.62054,-8.04546 8.04551,-8.04546 h 8.04552 A 16.090919,16.090919 0 0 0 542.9929,105.563 16.090919,16.090919 0 0 0 526.90204,89.472086 h -16.09103 v -8.045469 c 0,-22.205452 -18.02177,-40.227284 -40.22724,-40.227284 -20.1137,0 -36.60687,14.562267 -39.74452,33.630003 -2.65508,-0.965449 -5.55144,-1.448187 -8.52823,-1.448187 a 24.136377,24.136377 0 0 0 -24.13639,24.136386 24.136377,24.136377 0 0 0 24.13639,24.136365 m 48.27275,0.96546 c 1.44743,1.93091 2.9768,4.10318 4.5054,6.35591 3.54011,4.98818 11.58547,16.81501 11.58547,24.6191 a 16.090919,16.090919 0 0 1 -16.09087,16.09092 16.090919,16.090919 0 0 1 -16.09086,-16.09092 c 0,-7.80409 8.04535,-19.63092 11.58546,-24.6191 1.5286,-2.25273 3.05722,-4.34453 4.5054,-6.35591 m 0,-25.101825 -4.02269,4.505475 c 0,0 -6.83861,7.72362 -13.7578,17.86091 -6.91904,10.05682 -14.40139,22.12499 -14.40139,33.71045 a 32.181837,32.181837 0 0 0 32.18188,32.18186 32.181837,32.181837 0 0 0 32.18188,-32.18186 c 0,-11.58546 -7.48235,-23.65363 -14.40139,-33.71045 -6.91905,-10.13729 -13.75782,-17.86091 -13.75782,-17.86091"
         id="path2"
         style="stroke-width:8.04546" />
    </g>
    <g
       id="g969"
       transform="translate(-1.5119269,49.253925)">
      <path
         fill="currentColor"
         d="m 46.023404,313.98455 a 8.0454593,8.0454593 0 0 1 8.045511,8.04551 8.0454593,8.0454593 0 0 1 -8.045511,8.04552 40.227296,40.227296 0 0 1 -40.2272425,-40.2274 40.227296,40.227296 0 0 1 40.2272425,-40.22725 c 8.045511,-18.90679 26.550017,-32.18188 48.272754,-32.18188 27.595902,0 50.203672,21.40102 52.295442,48.5142 l 4.02282,-0.24176 a 32.181837,32.181837 0 0 1 32.18174,32.18189 32.181837,32.181837 0 0 1 -32.18174,32.18188 h -8.0455 a 8.0454593,8.0454593 0 0 1 -8.04551,-8.04551 8.0454593,8.0454593 0 0 1 8.04551,-8.0455 h 8.0455 a 16.090918,16.090918 0 0 0 16.09087,-16.09087 16.090918,16.090918 0 0 0 -16.09087,-16.09086 H 134.52341 V 273.757 A 40.227296,40.227296 0 0 0 94.296158,233.52977 c -20.113698,0 -36.606862,14.64268 -39.744514,33.71049 -2.655076,-0.96545 -5.551441,-1.52877 -8.52824,-1.52877 a 24.136378,24.136378 0 0 0 -24.136373,24.13639 24.136378,24.136378 0 0 0 24.136373,24.13638 m 15.125412,32.74504 17.619636,-4.58584 -12.953218,-13.03364 c -3.137652,-3.05737 -3.137652,-8.20638 0,-11.42459 3.137805,-3.13766 8.367226,-3.13766 11.424606,0 l 13.033644,12.9532 4.585838,-17.61963 a 8.0454593,8.0454593 0 1 1 15.527698,4.18369 l -4.74668,17.61963 17.61948,-4.74685 a 8.0454593,8.0454593 0 1 1 4.18369,15.52772 l -17.61964,4.58583 12.95322,13.03364 c 3.1378,3.05739 3.1378,8.28696 0,11.42461 -3.13765,3.13781 -8.36723,3.13781 -11.4246,0 L 98.318841,361.69386 93.733003,379.31348 A 8.0454593,8.0454593 0 1 1 78.205297,375.1298 l 4.746845,-17.61949 -17.619637,4.74671 A 8.0454593,8.0454593 0 1 1 61.148816,346.7293 Z"
         id="path2-3"
         style="stroke-width:8.04546" />
      <path
         fill="currentColor"
         d="m 210.03082,325.62288 h 80.45464 a 8.045459,8.045459 0 0 1 8.04536,8.04552 8.045459,8.045459 0 0 1 -8.04536,8.04536 h -80.45464 a 8.045459,8.045459 0 0 1 -8.0455,-8.04536 8.045459,8.045459 0 0 1 8.0455,-8.04552 m 104.59102,0 h 40.22725 a 8.045459,8.045459 0 0 1 8.04551,8.04552 8.045459,8.045459 0 0 1 -8.04551,8.04536 h -40.22725 a 8.045459,8.045459 0 0 1 -8.0455,-8.04536 8.045459,8.045459 0 0 1 8.0455,-8.04552 M 193.93996,301.48651 a 40.227294,40.227294 0 0 1 40.22724,-40.22725 c 8.04552,-18.90679 26.55001,-32.18188 48.27276,-32.18188 27.5959,0 50.20366,21.40087 52.29543,48.51419 l 4.02284,-0.24174 c 17.61948,0 31.94044,14.15996 32.18173,32.18189 H 354.84909 A 16.090918,16.090918 0 0 0 338.75823,293.44069 H 322.6672 v -8.04536 a 40.227294,40.227294 0 0 0 -40.22724,-40.22738 c -20.1137,0 -36.60687,14.64283 -39.74452,33.71049 -2.65507,-0.96545 -5.55145,-1.52861 -8.52824,-1.52861 a 24.136377,24.136377 0 0 0 -24.13638,24.13638 24.136377,24.136377 0 0 0 1.36837,8.04551 h -16.65417 l -0.8043,-8.04551 m 16.09087,56.31826 h 16.09087 a 8.045459,8.045459 0 0 1 8.0455,8.04536 8.045459,8.045459 0 0 1 -8.0455,8.0455 h -16.09087 a 8.045459,8.045459 0 0 1 -8.04551,-8.0455 8.045459,8.045459 0 0 1 8.04551,-8.04536 m 40.22723,0 h 104.59103 a 8.045459,8.045459 0 0 1 8.04551,8.04536 8.045459,8.045459 0 0 1 -8.04551,8.0455 H 250.25882 a 8.045459,8.045459 0 0 1 -8.04535,-8.0455 8.045459,8.045459 0 0 1 8.04535,-8.04536 z"
         id="path2-6"
         style="stroke-width:8.04546" />
      <path
         fill="currentColor"
         d="m 484.74331,290.84186 a 30.971446,30.971446 0 0 0 -30.97153,30.97137 v 6.19437 h -12.3761 a 18.58287,18.58287 0 0 0 0,37.16574 h 86.7199 a 18.58287,18.58287 0 0 0 0,-37.16574 h -12.38857 l -0.0124,-6.19437 a 30.971446,30.971446 0 0 0 -30.97132,-30.97137 z m -42.91404,24.77716 a 43.360025,43.360025 0 0 1 85.82807,0 h 0.45886 a 30.971446,30.971446 0 0 1 0,61.94289 h -86.71988 a 30.971446,30.971446 0 0 1 0,-61.94289 z m 40.28758,-76.56134 a 6.1961322,6.1961322 0 1 0 -10.93909,-5.82275 l -5.27759,9.94802 a 6.1961365,6.1961365 0 0 0 10.93911,5.82274 l 5.27757,-9.96049 z m -46.72964,-9.2544 a 6.1995588,6.1995588 0 1 0 -11.85588,3.62987 l 3.30772,10.77803 a 6.1942891,6.1942891 0 0 0 11.8434,-3.62972 z m 12.20269,23.87284 c 11.34786,0 21.49424,5.07937 28.30793,13.08234 a 54.992898,54.992898 0 0 0 -13.71415,4.06346 24.777157,24.777157 0 0 0 -34.58891,34.63854 43.223751,43.223751 0 0 0 -11.1498,5.64904 37.165735,37.165735 0 0 1 31.14493,-57.43338 z m -51.78434,2.65112 a 6.1961131,6.1961131 0 1 0 -5.82259,10.93911 l 9.94802,5.27756 a 6.196134,6.196134 0 0 0 5.82274,-10.93909 l -9.96049,-5.27758 z m 5.15365,55.29029 a 6.1942891,6.1942891 0 0 0 -3.62971,-11.84357 l -10.77818,3.29541 a 6.1942891,6.1942891 0 1 0 3.62987,11.84356 z"
         id="path2-7"
         style="stroke-width:12.3886" />
      <path
         fill="currentColor"
         d="M 610.45487,333.66838 A 40.227296,40.227296 0 0 1 570.22763,293.441 40.227296,40.227296 0 0 1 610.45487,253.21374 c 8.04552,-18.90679 26.55002,-32.18188 48.27276,-32.18188 27.5959,0 50.20366,21.40102 52.29544,48.5142 l 4.02283,-0.24175 a 32.181838,32.181838 0 0 1 32.18173,32.18189 32.181838,32.181838 0 0 1 -32.18173,32.18188 h -8.04551 a 8.0454593,8.0454593 0 0 1 -8.04551,-8.0455 8.0454593,8.0454593 0 0 1 8.04551,-8.04551 h 8.04551 A 16.090918,16.090918 0 0 0 731.13677,301.4862 16.090918,16.090918 0 0 0 715.0459,285.39534 h -16.09102 v -8.04552 a 40.227296,40.227296 0 0 0 -40.22725,-40.22725 c -20.1137,0 -36.60687,14.64269 -39.74452,33.71051 -2.65507,-0.96546 -5.55144,-1.52877 -8.52824,-1.52877 a 24.136378,24.136378 0 0 0 -24.13637,24.13638 24.136378,24.136378 0 0 0 24.13637,24.13638 h 8.04552 a 8.0454593,8.0454593 0 0 1 8.04536,8.04551 8.0454593,8.0454593 0 0 1 -8.04536,8.0455 h -8.04552 m 48.27276,-40.22739 h 24.13638 l -16.09087,32.18189 h 16.09087 l -30.1704,56.31827 6.03402,-40.22741 h -20.1137 z"
         id="path2-5"
         style="stroke-width:8.04546" />
    </g>
  </g>
</svg>
